<svg xmlns="http://www.w3.org/2000/svg" viewBox="0 0 91.2 120"><defs><style>.cls-1{fill:#fff;}</style></defs><g id="图层_2" data-name="图层 2"><g id="图层_1-2" data-name="图层 1"><path class="cls-1" d="M22.41,37a4.78,4.78,0,1,0-4.78-4.78A4.78,4.78,0,0,0,22.41,37Z"/><circle class="cls-1" cx="32.69" cy="21.82" r="6.52"/><path class="cls-1" d="M20.58,16.94a8.47,8.47,0,1,0-8.47-8.47A8.47,8.47,0,0,0,20.58,16.94Z"/><path class="cls-1" d="M67.26,75.25A9.8,9.8,0,0,1,52,67.08,9.68,9.68,0,0,1,54.21,61,22.65,22.65,0,1,0,67.26,75.25Z"/><path class="cls-1" d="M85.93,60.68c-3-.19-6.05-.35-9.15-.49A37.94,37.94,0,0,0,28.25,48.11V45.54a5.59,5.59,0,0,0-11.17,0V56.8a39.78,39.78,0,0,0-2.67,3.39c-3.09.14-6.15.3-9.14.49a45.56,45.56,0,0,0,0,42.54c3,.19,6.05.35,9.14.49a38,38,0,0,0,62.37,0c3.1-.14,6.16-.3,9.15-.49a45.56,45.56,0,0,0,0-42.54ZM45.6,112.82A30.87,30.87,0,1,1,76.47,82,30.91,30.91,0,0,1,45.6,112.82Z"/></g></g></svg>